<svg width="73" height="19" viewBox="0 0 73 19" fill="none" xmlns="http://www.w3.org/2000/svg">
<path d="M4.016 3.96V8.16H9.656V10.824H4.016V15.264H10.376V18H0.656V1.224H10.376V3.96H4.016ZM18.9734 14.904L22.3334 4.704H25.9094L20.9894 18H16.9094L12.0134 4.704H15.6134L18.9734 14.904ZM31.1566 0.24V18H27.7966V0.24H31.1566ZM46.8363 11.064C46.8363 11.544 46.8043 11.976 46.7403 12.36H37.0203C37.1003 13.32 37.4363 14.072 38.0283 14.616C38.6203 15.16 39.3483 15.432 40.2123 15.432C41.4603 15.432 42.3483 14.896 42.8763 13.824H46.5003C46.1163 15.104 45.3803 16.16 44.2923 16.992C43.2043 17.808 41.8683 18.216 40.2843 18.216C39.0043 18.216 37.8523 17.936 36.8283 17.376C35.8203 16.8 35.0283 15.992 34.4523 14.952C33.8923 13.912 33.6123 12.712 33.6123 11.352C33.6123 9.976 33.8923 8.768 34.4523 7.728C35.0123 6.688 35.7963 5.888 36.8043 5.328C37.8123 4.768 38.9723 4.488 40.2843 4.488C41.5483 4.488 42.6763 4.76 43.6683 5.304C44.6763 5.848 45.4523 6.624 45.9963 7.632C46.5563 8.624 46.8363 9.768 46.8363 11.064ZM43.3563 10.104C43.3403 9.24 43.0283 8.552 42.4203 8.04C41.8123 7.512 41.0683 7.248 40.1883 7.248C39.3563 7.248 38.6523 7.504 38.0763 8.016C37.5163 8.512 37.1723 9.208 37.0443 10.104H43.3563ZM52.6488 6.768C53.0808 6.064 53.6408 5.512 54.3288 5.112C55.0328 4.712 55.8328 4.512 56.7288 4.512V8.04H55.8408C54.7848 8.04 53.9848 8.288 53.4408 8.784C52.9128 9.28 52.6488 10.144 52.6488 11.376V18H49.2888V4.704H52.6488V6.768ZM70.1831 18.168C69.5751 18.168 69.0711 17.984 68.6711 17.616C68.2871 17.232 68.0951 16.76 68.0951 16.2C68.0951 15.64 68.2871 15.176 68.6711 14.808C69.0711 14.424 69.5751 14.232 70.1831 14.232C70.7751 14.232 71.2631 14.424 71.6471 14.808C72.0311 15.176 72.2231 15.64 72.2231 16.2C72.2231 16.76 72.0311 17.232 71.6471 17.616C71.2631 17.984 70.7751 18.168 70.1831 18.168Z" fill="black"/>
<path d="M62.3519 6.768C62.7839 6.064 63.3439 5.512 64.0319 5.112C64.7359 4.712 65.5359 4.512 66.4319 4.512V8.04H65.5439C64.4879 8.04 63.6879 8.288 63.1439 8.784C62.6159 9.28 62.3519 10.144 62.3519 11.376V18H58.9919V4.704H62.3519V6.768Z" fill="#C60B1E"/>
</svg>
