<svg width="142" height="26" viewBox="0 0 142 26" fill="none" xmlns="http://www.w3.org/2000/svg">
<path d="M12.872 7.432C12.872 8.328 12.656 9.168 12.224 9.952C11.808 10.736 11.144 11.368 10.232 11.848C9.336 12.328 8.2 12.568 6.824 12.568H4.016V19H0.656V2.248H6.824C8.12 2.248 9.224 2.472 10.136 2.92C11.048 3.368 11.728 3.984 12.176 4.768C12.64 5.552 12.872 6.44 12.872 7.432ZM6.68 9.856C7.608 9.856 8.296 9.648 8.744 9.232C9.192 8.8 9.416 8.2 9.416 7.432C9.416 5.8 8.504 4.984 6.68 4.984H4.016V9.856H6.68ZM18.6176 7.768C19.0496 7.064 19.6096 6.512 20.2976 6.112C21.0016 5.712 21.8016 5.512 22.6976 5.512V9.04H21.8096C20.7536 9.04 19.9536 9.288 19.4096 9.784C18.8816 10.28 18.6176 11.144 18.6176 12.376V19H15.2576V5.704H18.6176V7.768ZM30.8647 19.216C29.5847 19.216 28.4327 18.936 27.4087 18.376C26.3847 17.8 25.5767 16.992 24.9847 15.952C24.4087 14.912 24.1207 13.712 24.1207 12.352C24.1207 10.992 24.4167 9.792 25.0087 8.752C25.6167 7.712 26.4407 6.912 27.4807 6.352C28.5207 5.776 29.6807 5.488 30.9607 5.488C32.2407 5.488 33.4007 5.776 34.4407 6.352C35.4807 6.912 36.2967 7.712 36.8887 8.752C37.4967 9.792 37.8007 10.992 37.8007 12.352C37.8007 13.712 37.4887 14.912 36.8647 15.952C36.2567 16.992 35.4247 17.8 34.3687 18.376C33.3287 18.936 32.1607 19.216 30.8647 19.216ZM30.8647 16.288C31.4727 16.288 32.0407 16.144 32.5687 15.856C33.1127 15.552 33.5447 15.104 33.8647 14.512C34.1847 13.92 34.3447 13.2 34.3447 12.352C34.3447 11.088 34.0087 10.12 33.3367 9.448C32.6807 8.76 31.8727 8.416 30.9127 8.416C29.9527 8.416 29.1447 8.76 28.4887 9.448C27.8487 10.12 27.5287 11.088 27.5287 12.352C27.5287 13.616 27.8407 14.592 28.4647 15.28C29.1047 15.952 29.9047 16.288 30.8647 16.288ZM43.6254 7.624C44.0574 7.016 44.6494 6.512 45.4014 6.112C46.1694 5.696 47.0414 5.488 48.0174 5.488C49.1534 5.488 50.1774 5.768 51.0894 6.328C52.0174 6.888 52.7454 7.688 53.2734 8.728C53.8174 9.752 54.0894 10.944 54.0894 12.304C54.0894 13.664 53.8174 14.872 53.2734 15.928C52.7454 16.968 52.0174 17.776 51.0894 18.352C50.1774 18.928 49.1534 19.216 48.0174 19.216C47.0414 19.216 46.1774 19.016 45.4254 18.616C44.6894 18.216 44.0894 17.712 43.6254 17.104V25.336H40.2654V5.704H43.6254V7.624ZM50.6574 12.304C50.6574 11.504 50.4894 10.816 50.1534 10.24C49.8334 9.648 49.4014 9.2 48.8574 8.896C48.3294 8.592 47.7534 8.44 47.1294 8.44C46.5214 8.44 45.9454 8.6 45.4014 8.92C44.8734 9.224 44.4414 9.672 44.1054 10.264C43.7854 10.856 43.6254 11.552 43.6254 12.352C43.6254 13.152 43.7854 13.848 44.1054 14.44C44.4414 15.032 44.8734 15.488 45.4014 15.808C45.9454 16.112 46.5214 16.264 47.1294 16.264C47.7534 16.264 48.3294 16.104 48.8574 15.784C49.4014 15.464 49.8334 15.008 50.1534 14.416C50.4894 13.824 50.6574 13.12 50.6574 12.304ZM68.891 12.064C68.891 12.544 68.859 12.976 68.795 13.36H59.075C59.155 14.32 59.491 15.072 60.083 15.616C60.675 16.16 61.403 16.432 62.267 16.432C63.515 16.432 64.403 15.896 64.931 14.824H68.555C68.171 16.104 67.435 17.16 66.347 17.992C65.259 18.808 63.923 19.216 62.339 19.216C61.059 19.216 59.907 18.936 58.883 18.376C57.875 17.8 57.083 16.992 56.507 15.952C55.947 14.912 55.667 13.712 55.667 12.352C55.667 10.976 55.947 9.768 56.507 8.728C57.067 7.688 57.851 6.888 58.859 6.328C59.867 5.768 61.027 5.488 62.339 5.488C63.603 5.488 64.731 5.76 65.723 6.304C66.731 6.848 67.507 7.624 68.051 8.632C68.611 9.624 68.891 10.768 68.891 12.064ZM65.411 11.104C65.395 10.24 65.083 9.552 64.475 9.04C63.867 8.512 63.123 8.248 62.243 8.248C61.411 8.248 60.707 8.504 60.131 9.016C59.571 9.512 59.227 10.208 59.099 11.104H65.411ZM74.7035 7.768C75.1355 7.064 75.6955 6.512 76.3835 6.112C77.0875 5.712 77.8875 5.512 78.7835 5.512V9.04H77.8955C76.8395 9.04 76.0395 9.288 75.4955 9.784C74.9675 10.28 74.7035 11.144 74.7035 12.376V19H71.3435V5.704H74.7035V7.768ZM84.9586 8.464V14.896C84.9586 15.344 85.0626 15.672 85.2706 15.88C85.4946 16.072 85.8626 16.168 86.3746 16.168H87.9346V19H85.8226C82.9906 19 81.5746 17.624 81.5746 14.872V8.464H79.9906V5.704H81.5746V2.416H84.9586V5.704H87.9346V8.464H84.9586ZM92.0553 4.12C91.4633 4.12 90.9673 3.936 90.5673 3.568C90.1833 3.184 89.9913 2.712 89.9913 2.152C89.9913 1.592 90.1833 1.128 90.5673 0.759999C90.9673 0.375999 91.4633 0.183999 92.0553 0.183999C92.6473 0.183999 93.1353 0.375999 93.5193 0.759999C93.9193 1.128 94.1193 1.592 94.1193 2.152C94.1193 2.712 93.9193 3.184 93.5193 3.568C93.1353 3.936 92.6473 4.12 92.0553 4.12ZM93.7113 5.704V19H90.3513V5.704H93.7113ZM109.391 12.064C109.391 12.544 109.359 12.976 109.295 13.36H99.575C99.655 14.32 99.991 15.072 100.583 15.616C101.175 16.16 101.903 16.432 102.767 16.432C104.015 16.432 104.903 15.896 105.431 14.824H109.055C108.671 16.104 107.935 17.16 106.847 17.992C105.759 18.808 104.423 19.216 102.839 19.216C101.559 19.216 100.407 18.936 99.383 18.376C98.375 17.8 97.583 16.992 97.007 15.952C96.447 14.912 96.167 13.712 96.167 12.352C96.167 10.976 96.447 9.768 97.007 8.728C97.567 7.688 98.351 6.888 99.359 6.328C100.367 5.768 101.527 5.488 102.839 5.488C104.103 5.488 105.231 5.76 106.223 6.304C107.231 6.848 108.007 7.624 108.551 8.632C109.111 9.624 109.391 10.768 109.391 12.064ZM105.911 11.104C105.895 10.24 105.583 9.552 104.975 9.04C104.367 8.512 103.623 8.248 102.743 8.248C101.911 8.248 101.207 8.504 100.631 9.016C100.071 9.512 99.727 10.208 99.599 11.104H105.911ZM116.932 19.216C115.844 19.216 114.868 19.024 114.004 18.64C113.14 18.24 112.452 17.704 111.94 17.032C111.444 16.36 111.172 15.616 111.124 14.8H114.508C114.572 15.312 114.82 15.736 115.252 16.072C115.7 16.408 116.252 16.576 116.908 16.576C117.548 16.576 118.044 16.448 118.396 16.192C118.764 15.936 118.948 15.608 118.948 15.208C118.948 14.776 118.724 14.456 118.276 14.248C117.844 14.024 117.148 13.784 116.188 13.528C115.196 13.288 114.38 13.04 113.74 12.784C113.116 12.528 112.572 12.136 112.108 11.608C111.66 11.08 111.436 10.368 111.436 9.472C111.436 8.736 111.644 8.064 112.06 7.456C112.492 6.848 113.1 6.368 113.884 6.016C114.684 5.664 115.62 5.488 116.692 5.488C118.276 5.488 119.54 5.888 120.484 6.688C121.428 7.472 121.948 8.536 122.044 9.88H118.828C118.78 9.352 118.556 8.936 118.156 8.632C117.772 8.312 117.252 8.152 116.596 8.152C115.988 8.152 115.516 8.264 115.18 8.488C114.86 8.712 114.7 9.024 114.7 9.424C114.7 9.872 114.924 10.216 115.372 10.456C115.82 10.68 116.516 10.912 117.46 11.152C118.42 11.392 119.212 11.64 119.836 11.896C120.46 12.152 120.996 12.552 121.444 13.096C121.908 13.624 122.148 14.328 122.164 15.208C122.164 15.976 121.948 16.664 121.516 17.272C121.1 17.88 120.492 18.36 119.692 18.712C118.908 19.048 117.988 19.216 116.932 19.216ZM130.01 19.216C128.922 19.216 127.946 19.024 127.082 18.64C126.218 18.24 125.53 17.704 125.018 17.032C124.522 16.36 124.25 15.616 124.202 14.8H127.586C127.65 15.312 127.898 15.736 128.33 16.072C128.778 16.408 129.33 16.576 129.986 16.576C130.626 16.576 131.122 16.448 131.474 16.192C131.842 15.936 132.026 15.608 132.026 15.208C132.026 14.776 131.802 14.456 131.354 14.248C130.922 14.024 130.226 13.784 129.266 13.528C128.274 13.288 127.458 13.04 126.818 12.784C126.194 12.528 125.65 12.136 125.186 11.608C124.738 11.08 124.514 10.368 124.514 9.472C124.514 8.736 124.722 8.064 125.138 7.456C125.57 6.848 126.178 6.368 126.962 6.016C127.762 5.664 128.698 5.488 129.77 5.488C131.354 5.488 132.618 5.888 133.562 6.688C134.506 7.472 135.026 8.536 135.122 9.88H131.906C131.858 9.352 131.634 8.936 131.234 8.632C130.85 8.312 130.33 8.152 129.674 8.152C129.066 8.152 128.594 8.264 128.258 8.488C127.938 8.712 127.778 9.024 127.778 9.424C127.778 9.872 128.002 10.216 128.45 10.456C128.898 10.68 129.594 10.912 130.538 11.152C131.498 11.392 132.29 11.64 132.914 11.896C133.538 12.152 134.074 12.552 134.522 13.096C134.986 13.624 135.226 14.328 135.242 15.208C135.242 15.976 135.026 16.664 134.594 17.272C134.178 17.88 133.57 18.36 132.77 18.712C131.986 19.048 131.066 19.216 130.01 19.216Z" fill="black"/>
<path d="M139.488 19.168C138.88 19.168 138.376 18.984 137.976 18.616C137.592 18.232 137.4 17.76 137.4 17.2C137.4 16.64 137.592 16.176 137.976 15.808C138.376 15.424 138.88 15.232 139.488 15.232C140.08 15.232 140.568 15.424 140.952 15.808C141.336 16.176 141.528 16.64 141.528 17.2C141.528 17.76 141.336 18.232 140.952 18.616C140.568 18.984 140.08 19.168 139.488 19.168Z" fill="#C60B1E"/>
</svg>
